<?xml version="1.0" encoding="utf-8"?>
<!-- Generator: Adobe Illustrator 17.0.0, SVG Export Plug-In . SVG Version: 6.00 Build 0)  -->
<!DOCTYPE svg PUBLIC "-//W3C//DTD SVG 1.1//EN" "http://www.w3.org/Graphics/SVG/1.1/DTD/svg11.dtd">
<svg version="1.1" id="Layer_1" xmlns="http://www.w3.org/2000/svg" xmlns:xlink="http://www.w3.org/1999/xlink" x="0px" y="0px"
	 width="613.685px" height="181.657px" viewBox="0 0 613.685 181.657" enable-background="new 0 0 613.685 181.657"
	 xml:space="preserve">
<g>
	<path d="M515.908,0.471c4.323-1.187,9.155-0.032,12.853,2.384c2.734,3.306,4.97,7.513,4.164,11.932
		c-0.827,3.772-2.416,7.651-5.584,10.045c-3.825,3.995-10.045,4.005-15.068,2.84c-3.783-0.699-5.955-4.154-7.64-7.29
		C501.985,12.244,506.997,1.743,515.908,0.471z"/>
	<g>
		<path d="M79.06,1.764c8.403-0.371,17.283-0.88,25.061,2.914c6.379,2.087,11.561,7.174,14.104,13.33
			c2.66,8.71,1.801,18.893-3.56,26.438c-5.044,7.619-12.472,13.415-20.631,17.378c-4.016,1.272-7.841,3.094-11.879,4.26
			c-15.64,3.539-31.916,2.787-47.652,0.36c-3.391,8.17-3.433,17.336-2.49,26.004c1.399,5.319,3.815,10.904,8.488,14.157
			c6.602,5.372,16.022,4.843,23.842,2.988c9.378-3.857,16.107-12.525,19.497-21.882c2.109-6.019,4.843-12.61,11.052-15.375
			c5.425-1.854,11.508-1.42,16.848,0.54c-1.197,4.874-2.787,9.643-4.472,14.369c-1.791,6.421-2.289,13.14-4.281,19.519
			c-1.441,6.432-2.172,12.991-2.797,19.54c9.24-4.133,17.791-10.448,22.984-19.285c2.511-3.942,1.219-8.859,2.829-13.097
			c2.056-12.493,7.863-24.234,16.107-33.792c7.492-8.308,17.495-15.545,29.024-16.085c5.468-0.244,11.455-0.625,16.276,2.458
			c1.971,2.035,3.274,4.599,5.054,6.792c5.553,1.187,10.575,4.747,12.981,9.982c2.035,5.213,2.321,10.883,2.246,16.414
			c5.224-0.583,10.268-2.204,14.973-4.546c2.427-3.677,4.429-7.619,6.972-11.232c7.894-9.335,17.897-18.576,30.677-19.72
			c5.33-0.318,11.063-0.943,16.075,1.325c3.009,1.208,4.26,4.345,5.881,6.898c1.536,1.695,4.08,1.6,6.04,2.575
			c5.425,2.829,9.007,8.636,9.675,14.644c0.477,3.264,0.445,6.57,0.434,9.865c5.415-0.201,10.575-2.088,15.344-4.556
			c7.714-13.871,20.992-24.7,36.282-29.108c7.46-1.897,15.227-1.95,22.856-1.409c1.907-4.991,3.518-10.077,5.235-15.132
			c4.323-9.452,8.043-20.589,17.876-25.728c5.002-2.914,13.352-2.797,16.117,3.126c2.119,10.459-3.126,20.271-6.888,29.659
			c-6.888,16.817-16.107,32.711-21.468,50.142c-3.179,7.894-4.768,16.541-4.228,25.05c0.042,2.14,1.197,4.005,1.992,5.923
			c5.998,2.617,12.027-0.954,16.477-4.811c5.394-5.044,9.145-11.54,12.642-17.972c2.119,1.282,5.086,2.013,5.945,4.652
			c1.812,3.804,0.668,8.074,0.827,12.101c2.236,11.116,17.452,15.291,26.014,8.583c5.711-3.105,5.923-11.9,1.335-16.096
			c-4.069-3.624-9.187-5.722-13.945-8.233c-7.629-3.719-14.443-10.596-15.333-19.37c-0.477-5.86-0.731-12.355,2.67-17.474
			c5.055-9.335,15.863-14.178,26.11-14.74c7.799-0.36,15.895-0.572,23.333,2.172c7.704,3.295,14.612,10.83,13.797,19.709
			c0.297,3.688-0.943,7.322-3.571,9.929c-3.698,5.012-10.607,4.451-16.117,4.366c2.405-5.648,2.48-12.906-2.639-17.113
			c-3.899-2.204-8.636-4.027-13.108-2.458c-2.522,0.827-5.489,1.685-6.856,4.175c-1.25,2.766-1.06,5.976-0.392,8.859
			c5.182,7.799,15.333,8.827,22.782,13.542c6.453,3.55,11.868,10.151,11.529,17.855c0.837,8.827-2.607,17.664-8.922,23.821
			c-5.998,6.337-14.464,9.314-22.74,11.275c-12.938,2.077-28.42,0.604-36.982-10.543c-4.461,3.221-8.986,6.697-14.432,8.011
			c-7.322,2.586-16.138,3.846-23.1-0.339c-4.048-1.78-6.506-5.934-7.714-10.024c-3.518,3.38-7.1,6.898-11.624,8.89
			c-8.021,2.861-17.039,5.341-25.325,2.024c-9.388-2.035-15.513-11.211-16.711-20.313c-0.827-8.244-0.583-16.626,0.996-24.764
			c-3.476,0.805-7.11,1.208-10.406,2.596c-2.087,3.221-2.522,7.174-4.313,10.543c-5.786,12.271-14.793,23.609-27.169,29.67
			c-7.82,3.19-16.435,5.097-24.838,3.338c-3.603-1.282-7.47-1.982-10.777-3.974c-4.535-3.582-8.784-8.021-10.459-13.701
			c-4.058-9.071-2.978-19.264-2.109-28.865c-3.518,0.964-7.078,1.791-10.618,2.702c-2.215,2.702-3.009,6.188-4.217,9.388
			c-5.531,12.832-14.761,24.457-27.318,30.984c-8,3.179-16.774,5.351-25.368,3.412c-4.556-1.473-9.664-2.395-13.118-5.998
			c-2.172-1.812-3.836-4.09-5.542-6.315c-1.452-0.487-2.236,1.123-3.19,1.876c-7.916,8.912-19.148,14.167-30.518,17.071
			c-1.441,2.268-2.374,4.811-3.444,7.269c-6.612,14.146-20.525,23.99-35.636,27.116c-8.996,1.536-18.491,2.416-27.212-0.932
			c-4.281-2.056-8.668-4.652-10.999-8.986c-3.38-7.682-1.918-17.399,4.069-23.397c6.633-6.538,15.672-9.939,24.69-11.635
			c9.526-2.978,19.582-3.2,29.447-4.058c1.123-3.963,1.664-8.053,2.204-12.133c-6.718,4.217-13.733,8.573-21.807,9.399
			c-8.149,0.89-16.594,1.028-24.531-1.25c-8.382-2.967-16.096-8.594-20.313-16.562c-5.902-9.833-6.358-21.818-5.266-32.955
			c1.547-6.104,1.579-12.769,5.002-18.247c-5.51-3.497-11.91-7.99-12.599-15.058c-0.371-4.906-0.17-10.819,3.974-14.189
			c2.31-2.872,6.178-3.306,9.611-3.412c1.589,4.641,5.076,8.414,9.124,11.073C32.574,24.547,45.11,12.657,60.623,6.342
			C66.768,4.805,72.649,1.997,79.06,1.764z M61.216,28.075c-7.068,4.546-12.461,11.126-17.452,17.781
			c6.994,1.865,14.284,2.702,21.521,2.586c6.114,0.127,11.985-1.971,17.791-3.624c6.602-2.533,13.351-8.297,13.404-15.863
			c0.297-4.609-4.578-6.697-8.212-7.926C78.763,19.703,68.993,22.596,61.216,28.075z M167.71,63.583
			c-7.449,5.192-12.069,13.457-15.227,21.765c-3.211,7.502-3.974,15.916-3.19,23.99c0.339,4.599,3.073,9.802,7.99,10.692
			c4.186,0.985,8.678-0.434,12.133-2.861c7.82-6.411,12.514-16.032,14.909-25.696c-3.995-3.009-7.46-7.089-8.774-11.985
			c-1.526-6.453-0.805-13.182,0.795-19.54C173.485,61.199,170.433,62.036,167.71,63.583z M256.963,64.812
			c-11.889,10.077-17.526,26.163-17.156,41.485c0.466,4.345,0.996,9.452,4.843,12.239c4.005,3.062,9.622,1.833,13.797-0.212
			c7.047-4.896,11.857-12.514,14.676-20.515c0.742-2.003,1.918-3.984,1.706-6.199c-2.533-3.137-6.199-5.542-7.47-9.537
			c-0.985-3.211-2.543-6.358-2.522-9.77c-0.297-4.323,1.674-8.286,2.586-12.419C263.893,61.411,259.877,62.153,256.963,64.812z
			 M351.537,65.289c-14.104,6.782-21.966,22.337-23.566,37.363c-0.36,5.086-1.25,10.893,2.088,15.238
			c4.355,2.84,10.332,2.374,14.687-0.223c7.1-4.959,10.575-13.288,13.913-20.949c1.579-5.839,4.037-11.412,5.139-17.378
			c1.144-5.786,3.444-11.285,4.239-17.145C362.451,62.291,356.517,62.407,351.537,65.289z M45.247,155.221
			c-2.363,1.483-5.913,4.249-3.518,7.227c4.641,2.331,10.204,1.409,14.952-0.085c5.976-2.808,11.847-6.729,15.153-12.61
			C62.688,149.573,53.565,151.438,45.247,155.221z"/>
	</g>
	<g>
		<path d="M495.966,49.098c4.609-2.035,9.992-3.772,14.888-1.621c5.786,1.452,9.918,7.237,9.622,13.171
			c0.064,18.194-11.476,33.538-14.93,50.969c-1.134,3.942,2.649,8.191,6.708,6.591c6.453-2.193,12.695-6.888,15.259-13.373
			c0.424-18.946,8.414-38.105,23.143-50.354c8.445-6.994,19.709-10.522,30.634-8.901c8.371,0.615,16.223,6.612,17.834,15.036
			c0.985,6.602,0.678,13.659-2.384,19.72c-2.903,7.958-9.198,14.114-15.842,19.084c-9.113,6.157-19.317,10.851-30.147,12.959
			c0.721,3.688,3.338,6.919,7.259,7.312c12.419,1.791,24.541-3.624,34.534-10.596c5.51-3.995,9.982-9.155,14.697-14.008
			c2.13-0.201,4.09,1.505,5.224,3.158c1.96,4.949,1.579,10.967-1.261,15.513c-6.453,9.569-16.446,16.234-26.862,20.843
			c-5.786,2.797-12.302,3.126-18.448,4.684c-7.82,1.42-15.852-0.021-23.121-3.041c-4.366-2.13-7.428-6.029-10.469-9.675
			c-1.791,0.159-2.893,1.727-4.228,2.734c-9.007,8.392-22.009,12.122-34.11,10.194c-4.058-1.526-8.647-2.956-10.999-6.919
			c-2.903-4.97-3.094-11.052-2.289-16.626c1.325-13.352,7.894-25.325,10.893-38.285C494.864,68.553,496.21,58.773,495.966,49.098z
			 M561.134,71.234c-5.362,7.025-9.706,15.248-10.395,24.192c7.894-2.352,15.333-6.432,21.055-12.419
			c3.741-3.55,6.591-8.414,6.04-13.744c0.434-3.062-2.861-4.08-4.927-5.362C568.615,65.703,564.037,67.377,561.134,71.234z"/>
	</g>
</g>
</svg>
